<?xml version="1.0" standalone="no"?>
<!DOCTYPE svg PUBLIC "-//W3C//DTD SVG 20010904//EN"
 "http://www.w3.org/TR/2001/REC-SVG-20010904/DTD/svg10.dtd">
<svg version="1.0" xmlns="http://www.w3.org/2000/svg"
 width="48.000000pt" height="48.000000pt" viewBox="0 0 48.000000 48.000000"
 preserveAspectRatio="xMidYMid meet">

<g transform="translate(0.000000,48.000000) scale(0.100000,-0.100000)"
fill="#FFFFFF" stroke="none">
<path d="M60 440 c0 -13 -7 -20 -20 -20 -11 0 -20 -4 -20 -10 0 -5 9 -10 20
-10 13 0 20 -7 20 -20 0 -11 5 -20 10 -20 6 0 10 9 10 20 0 13 7 20 20 20 11
0 20 5 20 10 0 6 -9 10 -20 10 -13 0 -20 7 -20 20 0 11 -4 20 -10 20 -5 0 -10
-9 -10 -20z m20 -30 c0 -5 -4 -10 -10 -10 -5 0 -10 5 -10 10 0 6 5 10 10 10 6
0 10 -4 10 -10z"/>
<path d="M162 377 l-42 -43 0 -124 0 -124 42 -43 42 -43 76 0 76 0 42 43 42
43 0 125 0 125 -43 42 c-43 42 -43 42 -118 42 l-75 0 -42 -43z m168 18 c0 -2
-5 -16 -12 -30 -8 -18 -19 -25 -38 -25 -19 0 -30 7 -38 25 -17 36 -18 35 38
35 28 0 50 -2 50 -5z m-106 -33 c13 -26 13 -31 -1 -45 -15 -14 -19 -14 -46 -1
l-29 16 28 29 c15 16 29 29 31 29 1 0 9 -13 17 -28z m160 -1 l28 -29 -29 -16
c-27 -13 -31 -13 -46 1 -14 14 -14 19 -1 45 8 15 16 28 17 28 2 0 16 -13 31
-29z m-62 -58 c25 -22 26 -157 1 -185 -20 -22 -61 -23 -85 -1 -25 22 -26 157
-1 185 20 22 61 23 85 1z m-147 -5 c24 -11 25 -15 25 -88 0 -73 -1 -77 -25
-88 -14 -7 -28 -12 -30 -12 -3 0 -5 45 -5 100 0 55 2 100 5 100 2 0 16 -5 30
-12z m245 -88 c0 -55 -2 -100 -5 -100 -2 0 -16 5 -30 12 -24 11 -25 15 -25 88
0 70 2 78 23 88 12 6 25 11 30 11 4 1 7 -44 7 -99z m-196 -151 c-8 -16 -16
-29 -17 -29 -2 0 -16 13 -31 29 l-28 29 28 15 c26 14 31 14 46 0 16 -14 16
-18 2 -44z m160 0 c-15 -16 -29 -29 -31 -29 -1 0 -9 13 -17 28 -13 26 -13 31
1 45 15 14 19 14 46 1 l29 -16 -28 -29z m-66 -4 c17 -36 18 -35 -38 -35 -56 0
-55 -1 -38 35 16 35 60 35 76 0z"/>
</g>
</svg>
