<?xml version="1.0" standalone="no"?>
<!DOCTYPE svg PUBLIC "-//W3C//DTD SVG 20010904//EN"
 "http://www.w3.org/TR/2001/REC-SVG-20010904/DTD/svg10.dtd">
<svg version="1.0" xmlns="http://www.w3.org/2000/svg"
 width="512.000000pt" height="512.000000pt" viewBox="0 0 512.000000 512.000000"
 preserveAspectRatio="xMidYMid meet">

<g transform="translate(0.000000,512.000000) scale(0.100000,-0.100000)"
fill="#FFFFFF" stroke="none">
<path d="M460 4226 c-143 -40 -248 -146 -286 -290 -20 -75 -20 -2676 0 -2751
39 -147 144 -252 291 -291 75 -21 4116 -20 4191 0 146 39 251 144 290 291 11
41 14 301 14 1375 0 1074 -3 1334 -14 1375 -39 147 -144 252 -290 291 -72 19
-4126 19 -4196 0z m1140 -902 l0 -756 -37 32 c-49 44 -144 87 -229 105 -224
47 -386 -28 -438 -205 -31 -105 -13 -213 49 -295 l35 -45 -330 0 -330 0 0 858
c0 976 -5 919 80 995 27 24 63 48 82 54 21 7 222 11 576 12 l542 1 0 -756z
m3041 741 c58 -21 124 -87 144 -144 13 -39 15 -158 15 -903 l0 -858 -1210 0
-1210 0 35 45 c105 138 76 362 -60 455 -142 98 -412 69 -560 -61 l-35 -31 0
756 0 756 1419 0 c1252 0 1424 -2 1462 -15z m-3266 -1536 c121 -45 207 -165
222 -310 l6 -59 -114 0 c-286 1 -462 103 -447 261 6 59 30 97 79 122 46 25
170 18 254 -14z m864 13 c48 -24 73 -62 79 -121 15 -157 -162 -260 -447 -261
l-114 0 6 59 c18 165 115 284 267 325 77 21 167 20 209 -2z m-937 -725 c-127
-128 -182 -190 -182 -206 0 -30 25 -77 45 -85 51 -19 65 -9 252 176 l183 182
0 -422 0 -422 -536 0 c-386 0 -548 3 -576 12 -22 6 -62 31 -88 55 -79 71 -80
77 -80 515 l0 378 582 0 582 0 -182 -183z m3498 -193 c0 -262 -4 -389 -12
-416 -6 -22 -31 -62 -55 -88 -78 -86 49 -80 -1555 -80 l-1418 0 0 422 0 422
183 -182 c187 -185 201 -195 252 -176 20 8 45 55 45 85 0 16 -55 78 -182 206
l-182 183 1462 0 1462 0 0 -376z"/>
<path d="M2989 3661 c-18 -14 -24 -29 -24 -61 0 -32 6 -47 24 -61 22 -18 50
-19 651 -19 601 0 629 1 651 19 33 27 33 95 0 122 -22 18 -50 19 -651 19 -601
0 -629 -1 -651 -19z"/>
<path d="M3229 3101 c-18 -14 -24 -29 -24 -61 0 -32 6 -47 24 -61 22 -18 48
-19 531 -19 483 0 509 1 531 19 33 27 33 95 0 122 -22 18 -48 19 -531 19 -483
0 -509 -1 -531 -19z"/>
</g>
</svg>
